<?xml version="1.0" encoding="utf-8"?>
<!-- Generator: Adobe Illustrator 22.0.0, SVG Export Plug-In . SVG Version: 6.00 Build 0)  -->
<svg version="1.1" id="Layer_1" xmlns="http://www.w3.org/2000/svg" xmlns:xlink="http://www.w3.org/1999/xlink" x="0px" y="0px"
	 viewBox="0 0 161.7 186.4" style="enable-background:new 0 0 161.7 186.4;" xml:space="preserve">
<style type="text/css">
	.st0{fill:#FFFFFF;}
	.st1{fill:#1DA1CF;}
	.st2{fill:#1B9BC6;}
	.st3{fill:#1EA8D6;}
</style>
<g>
	<polygon class="st0" points="81,0.3 0.3,46.9 0.3,140 81,186.6 161.6,140 161.6,46.9 	"/>
	<polygon class="st1" points="81,168.8 37,143.5 47.5,137.6 81,156.7 81,138.3 81,138.3 49.5,120.3 8,144.4 81,186.7 81,186.7 
		81,168.8 	"/>
	<polygon class="st2" points="88.9,88.8 81,84.3 81,93.4 	"/>
	<polygon class="st2" points="135.7,124.9 135.7,115.7 88.9,88.8 81,93.4 	"/>
	<polygon class="st3" points="26.2,61.7 26.2,70.7 73.4,97.8 81,93.4 	"/>
	<polygon class="st3" points="34.5,120.3 34.5,120.2 34.5,120.3 	"/>
	<polygon class="st2" points="127.3,67.4 127.3,82.1 146.1,82.1 146.1,130.8 146,130.9 161.7,139.9 161.7,67.2 	"/>
	<polygon class="st2" points="81,168.8 81,186.7 161.7,140 161.7,139.9 146,130.9 	"/>
	<polygon class="st3" points="15.8,104.6 15.8,55.9 16,55.8 0.4,46.8 0.4,120.3 34.5,120.3 34.5,120.2 34.5,104.6 	"/>
	<polygon class="st1" points="81,18.4 81,18.4 81,0.1 81,0.1 0.4,46.7 0.4,46.8 16,55.8 	"/>
	<polygon class="st1" points="73.4,97.8 81,102.1 81,93.4 	"/>
	<polygon class="st2" points="124.6,43.4 114.5,49.3 81,30.2 81,48.3 112.4,66.3 153.7,42.4 81,0.1 81,18.4 	"/>
	<polygon class="st2" points="135.7,125.3 135.7,124.9 81,93.4 81,102.1 112.6,120.3 81,138.3 81,156.7 	"/>
	<polygon class="st1" points="81,30.2 26.2,61.5 26.2,61.7 81,93.4 81,84.3 49.3,66 81,48.3 81,30.2 	"/>
</g>
</svg>
