<?xml version="1.0" encoding="utf-8"?>
<!-- Generator: Adobe Illustrator 22.0.0, SVG Export Plug-In . SVG Version: 6.00 Build 0)  -->
<svg version="1.1" id="Layer_1" xmlns="http://www.w3.org/2000/svg" xmlns:xlink="http://www.w3.org/1999/xlink" x="0px" y="0px"
	 viewBox="0 0 583 186.5" style="enable-background:new 0 0 583 186.5;" xml:space="preserve">
<style type="text/css">
	.st0{fill:#FFFFFF;}
	.st1{fill:#1DA1CF;}
	.st2{fill:#1B9BC6;}
	.st3{fill:#1EA8D6;}
	.st4{fill:#21A7D5;}
	.st5{fill:#ABABAB;}
</style>
<g>
	<polygon class="st0" points="80.6,0.9 0,47.5 0,140.6 80.6,187.2 161.3,140.6 161.3,47.5 	"/>
	<polygon class="st1" points="80.7,169.4 36.6,144.1 47.2,138.2 80.7,157.3 80.7,138.9 80.7,138.9 49.1,120.9 7.7,145 80.7,187.3 
		80.7,187.3 80.7,169.4 	"/>
	<polygon class="st2" points="88.6,89.4 80.7,84.9 80.7,94 	"/>
	<polygon class="st2" points="135.3,125.5 135.3,116.3 88.6,89.4 80.7,94 	"/>
	<polygon class="st3" points="25.9,62.3 25.9,71.3 73.1,98.4 80.7,94 	"/>
	<polygon class="st3" points="34.1,120.9 34.2,120.9 34.2,120.8 	"/>
	<polygon class="st2" points="127,68 127,82.7 145.7,82.7 145.7,131.4 145.7,131.5 161.3,140.5 161.3,67.8 	"/>
	<polygon class="st2" points="80.7,169.4 80.7,187.3 161.3,140.6 161.3,140.5 145.7,131.5 	"/>
	<polygon class="st3" points="15.5,105.2 15.5,56.5 15.6,56.4 0,47.4 0,120.9 34.1,120.9 34.2,120.8 34.2,105.2 	"/>
	<polygon class="st1" points="80.7,19.1 80.7,19.1 80.7,0.7 80.7,0.7 0,47.3 0,47.4 15.6,56.4 	"/>
	<polygon class="st1" points="73.1,98.4 80.7,102.7 80.7,94 	"/>
	<polygon class="st2" points="124.2,44 114.2,49.9 80.7,30.8 80.7,48.9 112.1,66.9 153.4,43 80.7,0.7 80.7,19.1 	"/>
	<polygon class="st2" points="135.3,125.9 135.3,125.5 80.7,94 80.7,102.7 112.3,120.9 80.7,138.9 80.7,157.3 	"/>
	<polygon class="st1" points="80.7,30.8 25.9,62.1 25.9,62.3 80.7,94 80.7,84.9 49,66.6 80.7,48.9 80.7,30.8 	"/>
</g>
<g>
	<path d="M244.5,133.1c-5.3,5.1-11.7,7.6-19.2,7.6c-8.1,0-14.7-2.5-19.8-7.4c-5.2-4.9-7.9-11.4-8-19.5h9.1
		c0.5,12.4,6.8,18.6,18.8,18.6c5,0,9.3-1.7,12.8-5.1c3.6-3.5,5.4-7.8,5.4-12.8c0-5.4-2.1-9.8-6.4-13.1c-1.7-1.3-3.9-2.5-6.4-3.6
		c-1.9-0.8-4.4-1.6-7.3-2.5c-3.8-1.1-6.8-2.2-9.1-3.2c-3-1.3-5.5-2.7-7.4-4.3c-4.6-3.8-6.9-9.3-6.9-16.4c0-7,2.5-12.8,7.4-17.4
		c4.9-4.5,10.9-6.8,17.9-6.8c7,0,12.9,2.3,17.7,7c4.9,4.7,7.3,10.6,7.3,17.6h-9.1c0-4.4-1.5-8.3-4.6-11.5c-3.1-3.3-6.9-4.9-11.3-4.9
		c-4.6,0-8.4,1.5-11.6,4.5c-3.2,3-4.8,6.7-4.8,11.3c0,5.2,2.4,9.2,7.3,12c1.8,1,4.1,1.9,7,2.9l7.2,2.1c6.9,2.1,12.2,5.1,15.9,9.2
		c4.1,4.5,6.2,10.1,6.2,16.9C252.5,121.7,249.8,128,244.5,133.1z"/>
	<path d="M264,139.1V48.9h49.4v8.2H273v32.4h39v8.2h-39V131h40.3v8.2H264z"/>
	<path d="M330.7,139.1V48.9h9.1V131h37.3v8.2H330.7z"/>
	<path d="M387.1,139.1V48.9h9.1V131h37.3v8.2H387.1z"/>
	<path class="st4" d="M442,139.1V48.9h49.4v8.2H451v32.4h39v8.2h-39V131h40.3v8.2H442z"/>
	<path class="st4" d="M560.8,97.2c-5,5-11.4,7.8-19.1,8.3l25.5,33.6h-11.4l-30.6-40.8l9.8-0.1c4.1-0.1,7.3-0.6,9.6-1.3
		c9.9-3,14.9-9.4,14.9-19.1c0-8-3.3-13.8-9.9-17.3c-2.6-1.4-5.4-2.3-8.5-2.9c-2.3-0.4-5.3-0.5-9.1-0.5h-15.7v82.1h-9V48.9h22.9
		c2,0,3.8,0,5.5,0.1c2.1,0.1,4,0.3,5.8,0.5c4.4,0.6,8.1,1.5,11,2.9c10.7,5.2,16.1,13.7,16.1,25.7C568.5,85.6,565.9,92,560.8,97.2z"
		/>
</g>
<g>
	<path class="st5" d="M468.1,165.9c-1.6,1-3.6,1.7-5.9,2.1c-1,0.2-2,0.3-3.2,0.3c-0.9,0.1-2,0.1-3.2,0.1h-8.5v17.6h-4.8v-43.7h13.3
		c1.2,0,2.3,0,3.2,0.1c1.2,0.1,2.2,0.2,3.2,0.3c2.3,0.4,4.3,1.1,5.9,2.1c4,2.5,5.9,6,5.9,10.5S472,163.4,468.1,165.9z M463.7,147.4
		c-1.2-0.5-2.5-0.9-4-1l-2.1-0.1h-10.4v18.2h10.4l2.1-0.1c1.5-0.1,2.8-0.5,4-1c3.7-1.6,5.6-4.3,5.6-8
		C469.2,151.7,467.4,149,463.7,147.4z"/>
	<path class="st5" d="M508.7,165.7c-2.7,2.4-6,3.8-10.1,4l13.5,16.3h-6l-16.2-19.8l5.2,0c2.2-0.1,3.9-0.3,5.1-0.6
		c5.3-1.5,7.9-4.5,7.9-9.3c0-3.9-1.7-6.7-5.2-8.4c-1.4-0.7-2.9-1.1-4.5-1.4c-1.2-0.2-2.8-0.3-4.8-0.3h-8.3v39.8h-4.8v-43.7h12.2
		c1.1,0,2,0,2.9,0.1c1.1,0.1,2.1,0.1,3.1,0.2c2.4,0.3,4.3,0.7,5.8,1.4c5.7,2.5,8.5,6.7,8.5,12.5
		C512.8,160.1,511.4,163.2,508.7,165.7z"/>
	<path class="st5" d="M560.9,180.3c-5,4.4-10.9,6.6-17.8,6.6c-6.8,0-12.7-2.2-17.7-6.5c-5.1-4.4-7.6-9.7-7.6-15.9
		c0-6.3,2.5-11.8,7.4-16.2c4.9-4.4,10.9-6.6,17.9-6.6c6.9,0,12.8,2.2,17.8,6.6c5,4.4,7.5,9.8,7.5,16S566,175.8,560.9,180.3z
		 M557.6,151c-4-3.7-8.9-5.5-14.5-5.5c-5.7,0-10.5,1.9-14.5,5.6c-4,3.7-6,8.2-6,13.3c0,5,2,9.4,6.1,13c4,3.6,8.8,5.4,14.4,5.4
		c5.6,0,10.4-1.8,14.5-5.5c4.1-3.6,6.1-8,6.1-13.2C563.7,159.1,561.7,154.7,557.6,151z"/>
</g>
</svg>
